<svg width="16" height="17" viewBox="0 0 16 17" fill="none" xmlns="http://www.w3.org/2000/svg">
<path d="M8.0001 2.1001C4.47179 2.1001 1.6001 4.97179 1.6001 8.5001C1.6001 12.0284 4.47179 14.9001 8.0001 14.9001C11.5284 14.9001 14.4001 12.0284 14.4001 8.5001C14.4001 4.97179 11.5284 2.1001 8.0001 2.1001ZM8.0001 3.16676C10.9519 3.16676 13.3334 5.54826 13.3334 8.5001C13.3334 11.4519 10.9519 13.8334 8.0001 13.8334C5.04826 13.8334 2.66676 11.4519 2.66676 8.5001C2.66676 5.54826 5.04826 3.16676 8.0001 3.16676ZM8.0001 4.23343C7.70463 4.23343 7.46677 4.4713 7.46677 4.76677V8.5001C7.46677 8.79557 7.70463 9.03343 8.0001 9.03343H11.7334C12.0289 9.03343 12.2668 8.79557 12.2668 8.5001C12.2668 8.20463 12.0289 7.96677 11.7334 7.96677H8.53343V4.76677C8.53343 4.4713 8.29557 4.23343 8.0001 4.23343Z" fill="#fff"/>
</svg>
