<svg width="12" height="12" viewBox="0 0 12 12" fill="none" xmlns="http://www.w3.org/2000/svg">
<g clip-path="url(#clip0_184_5228)">
<path d="M-0.000376562 5.99984C-0.000376562 5.79184 0.0716234 5.61584 0.215623 5.47184C0.359623 5.32784 0.539623 5.25584 0.755623 5.25584H1.49962C1.50762 5.25584 1.51562 5.25584 1.52362 5.25584C1.53162 5.25584 1.53962 5.25984 1.54762 5.26784C1.55562 5.27584 1.56362 5.27584 1.57162 5.26784C1.68362 4.58784 1.94362 3.96384 2.35162 3.39584C2.31962 3.37984 2.29962 3.36784 2.29162 3.35984L1.76362 2.81984C1.61162 2.67584 1.53562 2.49984 1.53562 2.29184C1.53562 2.08384 1.61162 1.90784 1.76362 1.76384C1.91562 1.61984 2.09162 1.54384 2.29162 1.53584C2.49162 1.52784 2.66762 1.60384 2.81962 1.76384L3.34762 2.29184C3.35562 2.29984 3.36762 2.31984 3.38362 2.35184C3.95962 1.94384 4.58762 1.68784 5.26762 1.58384C5.26762 1.57584 5.26362 1.56384 5.25562 1.54784C5.24762 1.53184 5.24762 1.51584 5.25562 1.49984V0.755839C5.25562 0.547839 5.32762 0.371839 5.47162 0.227839C5.61562 0.083839 5.79162 0.00783901 5.99962 -0.000160993C6.20762 -0.00816099 6.38362 0.067839 6.52762 0.227839C6.67162 0.387839 6.74762 0.563839 6.75562 0.755839V1.49984C6.75562 1.50784 6.75162 1.51984 6.74362 1.53584C6.73562 1.55184 6.73562 1.56784 6.74362 1.58384C7.42362 1.68784 8.04762 1.94384 8.61562 2.35184C8.63162 2.31984 8.64362 2.29984 8.65162 2.29184L9.17962 1.76384C9.32362 1.61184 9.49962 1.53584 9.70762 1.53584C9.91562 1.53584 10.0956 1.61184 10.2476 1.76384C10.3996 1.91584 10.4716 2.09184 10.4636 2.29184C10.4556 2.49184 10.3836 2.66784 10.2476 2.81984L9.71962 3.34784C9.70362 3.36384 9.67962 3.37984 9.64762 3.39584C10.0556 3.96384 10.3156 4.58784 10.4276 5.26784C10.4356 5.26784 10.4476 5.26784 10.4636 5.26784C10.4796 5.26784 10.4916 5.26384 10.4996 5.25584H11.2556C11.4556 5.25584 11.6316 5.32784 11.7836 5.47184C11.9356 5.61584 12.0076 5.79184 11.9996 5.99984C11.9916 6.20784 11.9196 6.38784 11.7836 6.53984C11.6476 6.69184 11.4716 6.76384 11.2556 6.75584H10.4996C10.4916 6.75584 10.4796 6.75184 10.4636 6.74384C10.4476 6.73584 10.4356 6.73184 10.4276 6.73184C10.3156 7.41984 10.0556 8.04784 9.64762 8.61584C9.67962 8.63184 9.70362 8.64784 9.71962 8.66384L10.2476 9.19184C10.3916 9.33584 10.4636 9.50784 10.4636 9.70784C10.4636 9.90784 10.3916 10.0878 10.2476 10.2478C10.1036 10.4078 9.92362 10.4798 9.70762 10.4638C9.49162 10.4478 9.31562 10.3758 9.17962 10.2478L8.65162 9.71984C8.64362 9.70384 8.63162 9.68384 8.61562 9.65984C8.04762 10.0598 7.42362 10.3158 6.74362 10.4278C6.74362 10.4358 6.74362 10.4478 6.74362 10.4638C6.74362 10.4798 6.74762 10.4918 6.75562 10.4998V11.2558C6.75562 11.4638 6.67962 11.6398 6.52762 11.7838C6.37562 11.9278 6.19962 11.9998 5.99962 11.9998C5.79962 11.9998 5.62362 11.9278 5.47162 11.7838C5.31962 11.6398 5.24762 11.4638 5.25562 11.2558V10.4998C5.25562 10.4918 5.25562 10.4798 5.25562 10.4638C5.25562 10.4478 5.25962 10.4358 5.26762 10.4278C4.58762 10.3158 3.95962 10.0598 3.38362 9.65984C3.36762 9.69184 3.35562 9.71184 3.34762 9.71984L2.81962 10.2478C2.67562 10.3918 2.49962 10.4638 2.29162 10.4638C2.08362 10.4638 1.90762 10.3918 1.76362 10.2478C1.61962 10.1038 1.54362 9.92384 1.53562 9.70784C1.52762 9.49184 1.60362 9.31984 1.76362 9.19184L2.29162 8.66384C2.30762 8.64784 2.32762 8.63184 2.35162 8.61584C1.94362 8.04784 1.68362 7.41984 1.57162 6.73184C1.57162 6.73184 1.56362 6.73584 1.54762 6.74384C1.53162 6.75184 1.51562 6.75584 1.49962 6.75584H0.755623C0.547623 6.75584 0.367623 6.68384 0.215623 6.53984C0.0636234 6.39584 -0.00837656 6.21584 -0.000376562 5.99984ZM2.99962 5.99984C2.99962 6.83184 3.29162 7.53984 3.87562 8.12384C4.45962 8.70784 5.16762 8.99984 5.99962 8.99984C6.83162 8.99984 7.53962 8.70784 8.12362 8.12384C8.70762 7.53984 8.99962 6.83184 8.99962 5.99984C8.99962 5.16784 8.70762 4.46384 8.12362 3.88784C7.53962 3.31184 6.83162 3.01584 5.99962 2.99984C5.16762 2.98384 4.45962 3.27984 3.87562 3.88784C3.29162 4.49584 2.99962 5.19984 2.99962 5.99984Z" fill="#777777"/>
</g>
<defs>
<clipPath id="clip0_184_5228">
<rect width="12" height="12" fill="white"/>
</clipPath>
</defs>
</svg>
