<svg width="16" height="17" viewBox="0 0 16 17" fill="none" xmlns="http://www.w3.org/2000/svg">
<g clip-path="url(#clip0_529_182)">
<path d="M14.0498 2.16666V2.11666H13.9998H1.99984H1.94984V2.16666V3.5V3.55H1.99984H13.9998H14.0498V3.5V2.16666ZM1.94984 15.1667V15.2167H1.99984H13.9998H14.0498V15.1667V4.83333V4.78333H13.9998H1.99984H1.94984V4.83333V15.1667ZM1.99984 0.883328H13.9998C14.3402 0.883328 14.6666 1.01854 14.9073 1.25921C15.148 1.49988 15.2832 1.8263 15.2832 2.16666V15.1667C15.2832 15.507 15.148 15.8334 14.9073 16.0741C14.6666 16.3148 14.3402 16.45 13.9998 16.45H1.99984C1.65948 16.45 1.33306 16.3148 1.09238 16.0741C0.851712 15.8334 0.716504 15.507 0.716504 15.1667V2.16666C0.716504 1.8263 0.851712 1.49988 1.09238 1.25921C1.33306 1.01854 1.65948 0.883328 1.99984 0.883328Z" fill="#AAAAAA" stroke="#111111" stroke-width="0.1"/>
<path d="M8.33333 3.16667H13.3333C13.4217 3.16667 13.5065 3.13155 13.569 3.06904C13.6315 3.00652 13.6667 2.92174 13.6667 2.83333C13.6667 2.74493 13.6315 2.66014 13.569 2.59763C13.5065 2.53512 13.4217 2.5 13.3333 2.5H8.33333C8.24493 2.5 8.16014 2.53512 8.09763 2.59763C8.03512 2.66014 8 2.74493 8 2.83333C8 2.92174 8.03512 3.00652 8.09763 3.06904C8.16014 3.13155 8.24493 3.16667 8.33333 3.16667Z" fill="#AAAAAA"/>
<path d="M3.00008 3.16667C3.04178 3.17611 3.08506 3.17611 3.12675 3.16667C3.16851 3.15277 3.20549 3.12735 3.23342 3.09333C3.26901 3.06064 3.29655 3.02016 3.3139 2.97506C3.33125 2.92995 3.33793 2.88145 3.33342 2.83333C3.34286 2.79164 3.34286 2.74836 3.33342 2.70667C3.3192 2.66507 3.29384 2.62817 3.26008 2.6C3.19778 2.53893 3.114 2.50471 3.02675 2.50471C2.9395 2.50471 2.85573 2.53893 2.79342 2.6C2.73957 2.61887 2.69451 2.65682 2.66675 2.70667C2.65731 2.74836 2.65731 2.79164 2.66675 2.83333C2.66846 2.92121 2.70413 3.005 2.76627 3.06715C2.82842 3.12929 2.91221 3.16496 3.00008 3.16667Z" fill="#AAAAAA"/>
<path d="M3.76681 3.06667C3.7911 3.11029 3.82839 3.14524 3.87348 3.16667C3.91519 3.1759 3.95842 3.1759 4.00014 3.16667C4.04386 3.1672 4.08721 3.15858 4.12739 3.14136C4.16758 3.12414 4.20371 3.0987 4.23348 3.06667C4.26723 3.0385 4.2926 3.00161 4.30681 2.96C4.31354 2.91805 4.31354 2.87529 4.30681 2.83334C4.30485 2.74557 4.26902 2.66195 4.20681 2.6C4.16632 2.55362 4.11355 2.51961 4.05457 2.50192C3.99559 2.48423 3.93281 2.48356 3.87348 2.5C3.83188 2.51422 3.79498 2.53959 3.76681 2.57334C3.73478 2.6031 3.70934 2.63924 3.69212 2.67942C3.6749 2.71961 3.66628 2.76295 3.66681 2.80667C3.65664 2.84828 3.65664 2.89173 3.66681 2.93334C3.68259 2.98858 3.7182 3.03605 3.76681 3.06667Z" fill="#AAAAAA"/>
<path d="M3.00016 5.88333H5.3335C5.49705 5.88333 5.6539 5.9483 5.76955 6.06395C5.88519 6.17959 5.95016 6.33644 5.95016 6.49999C5.95016 6.66355 5.88519 6.8204 5.76955 6.93604C5.6539 7.05169 5.49705 7.11666 5.3335 7.11666H3.00016C2.83661 7.11666 2.67976 7.05169 2.56411 6.93604C2.44847 6.8204 2.3835 6.66355 2.3835 6.49999C2.3835 6.33644 2.44847 6.17959 2.56411 6.06395C2.67976 5.9483 2.83661 5.88333 3.00016 5.88333Z" fill="#AAAAAA" stroke="#111111" stroke-width="0.1"/>
<path d="M3.00016 8.33H5.3335C5.49705 8.33 5.6539 8.39497 5.76955 8.51062C5.88519 8.62626 5.95016 8.78312 5.95016 8.94667C5.95016 9.11022 5.88519 9.26707 5.76955 9.38271C5.6539 9.49836 5.49705 9.56333 5.3335 9.56333H3.00016C2.83661 9.56333 2.67976 9.49836 2.56411 9.38271C2.44847 9.26707 2.3835 9.11022 2.3835 8.94667C2.3835 8.78312 2.44847 8.62626 2.56411 8.51062C2.67976 8.39497 2.83661 8.33 3.00016 8.33Z" fill="#AAAAAA" stroke="#111111" stroke-width="0.1"/>
<path d="M3.00016 10.77H5.3335C5.49705 10.77 5.6539 10.835 5.76955 10.9506C5.88519 11.0663 5.95016 11.2231 5.95016 11.3867C5.95016 11.5502 5.88519 11.7071 5.76955 11.8227C5.6539 11.9384 5.49705 12.0033 5.3335 12.0033H3.00016C2.83661 12.0033 2.67976 11.9384 2.56411 11.8227C2.44847 11.7071 2.3835 11.5502 2.3835 11.3867C2.3835 11.2231 2.44847 11.0663 2.56411 10.9506C2.67976 10.835 2.83661 10.77 3.00016 10.77Z" fill="#AAAAAA" stroke="#111111" stroke-width="0.1"/>
<path d="M3.00016 13.2167H5.3335C5.49705 13.2167 5.6539 13.2816 5.76955 13.3973C5.88519 13.5129 5.95016 13.6698 5.95016 13.8333C5.95016 13.9969 5.88519 14.1537 5.76955 14.2694C5.6539 14.385 5.49705 14.45 5.3335 14.45H3.00016C2.83661 14.45 2.67976 14.385 2.56411 14.2694C2.44847 14.1537 2.3835 13.9969 2.3835 13.8333C2.3835 13.6698 2.44847 13.5129 2.56411 13.3973C2.67976 13.2816 2.83661 13.2167 3.00016 13.2167Z" fill="#AAAAAA" stroke="#111111" stroke-width="0.1"/>
<path d="M7.00016 5.88333H9.3335C9.49705 5.88333 9.6539 5.9483 9.76955 6.06395C9.88519 6.17959 9.95016 6.33644 9.95016 6.49999C9.95016 6.66355 9.88519 6.8204 9.76955 6.93604C9.6539 7.05169 9.49705 7.11666 9.3335 7.11666H7.00016C6.83661 7.11666 6.67976 7.05169 6.56411 6.93604C6.44847 6.8204 6.3835 6.66355 6.3835 6.49999C6.3835 6.33644 6.44847 6.17959 6.56411 6.06395C6.67976 5.9483 6.83661 5.88333 7.00016 5.88333Z" fill="#AAAAAA" stroke="#111111" stroke-width="0.1"/>
<path d="M7.00016 8.33H9.3335C9.49705 8.33 9.6539 8.39497 9.76955 8.51062C9.88519 8.62626 9.95016 8.78312 9.95016 8.94667C9.95016 9.11022 9.88519 9.26707 9.76955 9.38271C9.6539 9.49836 9.49705 9.56333 9.3335 9.56333H7.00016C6.83661 9.56333 6.67976 9.49836 6.56411 9.38271C6.44847 9.26707 6.3835 9.11022 6.3835 8.94667C6.3835 8.78312 6.44847 8.62626 6.56411 8.51062C6.67976 8.39497 6.83661 8.33 7.00016 8.33Z" fill="#AAAAAA" stroke="#111111" stroke-width="0.1"/>
<path d="M7.00016 10.77H9.3335C9.49705 10.77 9.6539 10.835 9.76955 10.9506C9.88519 11.0663 9.95016 11.2231 9.95016 11.3867C9.95016 11.5502 9.88519 11.7071 9.76955 11.8227C9.6539 11.9384 9.49705 12.0033 9.3335 12.0033H7.00016C6.83661 12.0033 6.67976 11.9384 6.56411 11.8227C6.44847 11.7071 6.3835 11.5502 6.3835 11.3867C6.3835 11.2231 6.44847 11.0663 6.56411 10.9506C6.67976 10.835 6.83661 10.77 7.00016 10.77Z" fill="#AAAAAA" stroke="#111111" stroke-width="0.1"/>
<path d="M7.00016 13.2167H9.3335C9.49705 13.2167 9.6539 13.2816 9.76955 13.3973C9.88519 13.5129 9.95016 13.6698 9.95016 13.8333C9.95016 13.9969 9.88519 14.1537 9.76955 14.2694C9.6539 14.385 9.49705 14.45 9.3335 14.45H7.00016C6.83661 14.45 6.67976 14.385 6.56411 14.2694C6.44847 14.1537 6.3835 13.9969 6.3835 13.8333C6.3835 13.6698 6.44847 13.5129 6.56411 13.3973C6.67976 13.2816 6.83661 13.2167 7.00016 13.2167Z" fill="#AAAAAA" stroke="#111111" stroke-width="0.1"/>
<path d="M11.0002 5.88333H13.0002C13.1637 5.88333 13.3206 5.9483 13.4362 6.06395C13.5519 6.17959 13.6168 6.33644 13.6168 6.49999C13.6168 6.66355 13.5519 6.8204 13.4362 6.93604C13.3206 7.05169 13.1637 7.11666 13.0002 7.11666H11.0002C10.8366 7.11666 10.6798 7.05169 10.5641 6.93604C10.4485 6.8204 10.3835 6.66355 10.3835 6.49999C10.3835 6.33644 10.4485 6.17959 10.5641 6.06395C10.6798 5.9483 10.8366 5.88333 11.0002 5.88333Z" fill="#AAAAAA" stroke="#111111" stroke-width="0.1"/>
<path d="M11.0002 8.33H13.0002C13.1637 8.33 13.3206 8.39497 13.4362 8.51062C13.5519 8.62626 13.6168 8.78312 13.6168 8.94667C13.6168 9.11022 13.5519 9.26707 13.4362 9.38271C13.3206 9.49836 13.1637 9.56333 13.0002 9.56333H11.0002C10.8366 9.56333 10.6798 9.49836 10.5641 9.38271C10.4485 9.26707 10.3835 9.11022 10.3835 8.94667C10.3835 8.78312 10.4485 8.62626 10.5641 8.51062C10.6798 8.39497 10.8366 8.33 11.0002 8.33Z" fill="#AAAAAA" stroke="#111111" stroke-width="0.1"/>
<path d="M11.0002 10.77H13.0002C13.1637 10.77 13.3206 10.835 13.4362 10.9506C13.5519 11.0663 13.6168 11.2231 13.6168 11.3867C13.6168 11.5502 13.5519 11.7071 13.4362 11.8227C13.3206 11.9384 13.1637 12.0033 13.0002 12.0033H11.0002C10.8366 12.0033 10.6798 11.9384 10.5641 11.8227C10.4485 11.7071 10.3835 11.5502 10.3835 11.3867C10.3835 11.2231 10.4485 11.0663 10.5641 10.9506C10.6798 10.835 10.8366 10.77 11.0002 10.77Z" fill="#AAAAAA" stroke="#111111" stroke-width="0.1"/>
<path d="M11.0002 13.2167H13.0002C13.1637 13.2167 13.3206 13.2816 13.4362 13.3973C13.5519 13.5129 13.6168 13.6698 13.6168 13.8333C13.6168 13.9969 13.5519 14.1537 13.4362 14.2694C13.3206 14.385 13.1637 14.45 13.0002 14.45H11.0002C10.8366 14.45 10.6798 14.385 10.5641 14.2694C10.4485 14.1537 10.3835 13.9969 10.3835 13.8333C10.3835 13.6698 10.4485 13.5129 10.5641 13.3973C10.6798 13.2816 10.8366 13.2167 11.0002 13.2167Z" fill="#AAAAAA" stroke="#111111" stroke-width="0.1"/>
</g>
<defs>
<clipPath id="clip0_529_182">
<rect width="16" height="16" fill="white" transform="translate(0 0.5)"/>
</clipPath>
</defs>
</svg>
